<?xml version="1.0" encoding="utf-8"?>
<!-- Generator: Adobe Illustrator 23.1.1, SVG Export Plug-In . SVG Version: 6.00 Build 0)  -->
<svg version="1.1" id="Layer_1" xmlns="http://www.w3.org/2000/svg" xmlns:xlink="http://www.w3.org/1999/xlink" x="0px" y="0px"
	 viewBox="0 0 512 512" style="enable-background:new 0 0 512 512;" xml:space="preserve">
<style type="text/css">
	.st0{fill:#FFFFFF;}
</style>
<g>
	<g>
		<g>
			<path class="st0" d="M220.5,441.3c-1.4,0-2.7-0.3-4-0.8c-4-1.6-6.6-5.4-6.6-9.7v-128l-104-123.3H85.8c-14.7,0-26.7-12-26.7-26.7
				v-28.4c0-14.7,12-26.7,26.7-26.7h340.4c14.7,0,26.6,12,26.6,26.7v28.4c0,14.7-12,26.7-26.7,26.7h-19.9L299.7,302.8v75.9
				c0,2.8-1.1,5.5-3.1,7.5c-0.1,0.1-0.2,0.2-0.3,0.2L228,438.3C226,440.2,223.4,441.3,220.5,441.3z M228.1,291.3c2,2,3,4.6,3,7.4
				v108l47.4-32.5v-75.4c0-2.8,1.1-5.5,3.1-7.5l95.2-111.7H135.1L228.1,291.3z M85.8,119c-3.1,0-5.6,2.5-5.6,5.6V153
				c0,3.1,2.5,5.6,5.6,5.6h340.3c3.1,0,5.6-2.5,5.6-5.6l0.1-28.4c0-3.1-2.5-5.6-5.6-5.6H85.8z"/>
			<path class="st0" d="M426.2,100.2c13.3,0,24.1,10.9,24.1,24.2v28.4c0,13.4-10.9,24.2-24.2,24.2h-21L297.2,301.9v76.8
				c0,2.1-0.9,4.2-2.4,5.7l-68.5,52c-1.5,1.6-3.6,2.4-5.7,2.4c-1.1,0-2.1-0.2-3.1-0.6c-3-1.2-5-4.1-5-7.4V301.9L107.1,177H85.8
				c-13.4,0-24.2-10.9-24.2-24.2v-28.4c0-13.4,10.9-24.2,24.2-24.2H426.2 M85.8,161h340.3c4.5,0,8.1-3.7,8.1-8.1l0.1-28.4
				c0-4.5-3.7-8.1-8.1-8.1H85.8c-4.5,0-8.1,3.7-8.1,8.1v28.4C77.7,157.4,81.4,161,85.8,161 M228.7,411.3l52.4-35.9v-76.7
				c0-2.1,0.8-4.2,2.4-5.8L382.3,177H129.9l96.4,115.9c1.6,1.6,2.4,3.6,2.4,5.7L228.7,411.3 M426.2,95.2H85.8
				c-16.1,0-29.2,13.1-29.2,29.2v28.4c0,16.1,13.1,29.2,29.2,29.2h19l102.7,121.7v127.1c0,5.3,3.2,10.1,8.1,12c1.6,0.6,3.2,1,5,1
				c3.4,0,6.7-1.3,9-3.6l68.2-51.8c0.2-0.1,0.4-0.3,0.5-0.4c2.5-2.5,3.9-5.8,3.9-9.2v-74.9l105.2-121.8h18.7
				c16.1,0,29.2-13.1,29.2-29.2v-28.4C455.3,108.3,442.2,95.2,426.2,95.2L426.2,95.2z M85.8,156c-1.7,0-3.1-1.4-3.1-3.1v-28.4
				c0-1.7,1.4-3.1,3.1-3.1h340.4c1.7,0,3.1,1.4,3.1,3.1l-0.1,28.4c0,1.7-1.4,3.1-3.1,3.1H85.8L85.8,156z M140.5,182h230.9
				l-91.7,107.5c-2.4,2.5-3.7,5.7-3.7,9.2v74.1l-42.4,29V298.6c0-3.4-1.3-6.6-3.7-9.1L140.5,182L140.5,182z"/>
		</g>
	</g>
</g>
</svg>
