<?xml version="1.0" encoding="utf-8"?>
<!-- Generator: Adobe Illustrator 23.1.1, SVG Export Plug-In . SVG Version: 6.00 Build 0)  -->
<svg version="1.1" id="Laag_1" xmlns="http://www.w3.org/2000/svg" xmlns:xlink="http://www.w3.org/1999/xlink" x="0px" y="0px"
	 viewBox="0 0 50 50" style="enable-background:new 0 0 50 50;" xml:space="preserve">
<style type="text/css">
	.st0{fill:#003082;}
</style>
<path class="st0" d="M0,10L0,10c0,1.4,1.1,2.5,2.5,2.5h45c1.4,0,2.5-1.1,2.5-2.5l0,0c0-1.4-1.1-2.5-2.5-2.5h-45C1.1,7.5,0,8.6,0,10z
	 M0,25L0,25c0,1.4,1.1,2.5,2.5,2.5h45c1.4,0,2.5-1.1,2.5-2.5l0,0c0-1.4-1.1-2.5-2.5-2.5h-45C1.1,22.5,0,23.6,0,25z M0,40L0,40
	c0,1.4,1.1,2.5,2.5,2.5h45c1.4,0,2.5-1.1,2.5-2.5l0,0c0-1.4-1.1-2.5-2.5-2.5h-45C1.1,37.5,0,38.6,0,40z"/>
</svg>
