<?xml version="1.0" encoding="utf-8"?>
<!-- Generator: Adobe Illustrator 23.1.1, SVG Export Plug-In . SVG Version: 6.00 Build 0)  -->
<svg version="1.1" id="Laag_1" xmlns="http://www.w3.org/2000/svg" xmlns:xlink="http://www.w3.org/1999/xlink" x="0px" y="0px"
	 viewBox="0 0 20 20" style="enable-background:new 0 0 20 20;" xml:space="preserve">
<style type="text/css">
	.st0{fill:#FFFFFF;}
</style>
<path class="st0" d="M5,4C4.4,4,4,4.4,4,5c0,0.3,0.1,0.5,0.3,0.7l6.3,6.3l-6.3,6.3c-0.4,0.4-0.4,1,0,1.4s1,0.4,1.4,0l0,0l6.3-6.3
	l6.3,6.3c0.4,0.4,1,0.4,1.4,0s0.4-1,0-1.4l0,0L13.4,12l6.3-6.3c0.4-0.4,0.4-1,0-1.4C19.5,4.1,19.3,4,19,4s-0.5,0.1-0.7,0.3L12,10.6
	L5.7,4.3C5.5,4.1,5.3,4,5,4z"/>
</svg>
