<svg xmlns="http://www.w3.org/2000/svg" viewBox="0 0 47.5 53.25">
  <defs>
    <style>
      .cls-1 {
        fill: #fff;
      }
    </style>
  </defs>
  <title>Middel 1</title>
  <g id="Laag_2" data-name="Laag 2">
    <g id="Laag_1-2" data-name="Laag 1">
      <g>
        <path class="cls-1" d="M0,42.507c.43556-1.28066.76807-2.60826,1.32579-3.83329,1.75259-3.84957,4.32147-6.90639,8.549-8.17177a10.19518,10.19518,0,0,1,2.56884-.41449,1.42451,1.42451,0,0,1,.12693,2.84618C7.82838,33.25419,5.42809,36.393,3.72064,40.31c-1.38028,3.16643-.87409,6.52114-.93158,9.90708h41.6416c.44591-5.499.3097-10.82-4.19146-14.94087a7.86456,7.86456,0,0,0-5.22787-2.325c-.99212-.02189-1.65281-.55269-1.60465-1.51587a1.44713,1.44713,0,0,1,1.74785-1.37007,11.16143,11.16143,0,0,1,7.30506,3.3867,16.10963,16.10963,0,0,1,4.76949,9.517,4.13321,4.13321,0,0,0,.27092.78823V53.25H0Z"/>
        <path class="cls-1" d="M24.25,0c.59031.14138,1.18258.2751,1.77061.42536a11.8568,11.8568,0,0,1,8.63828,10.21779c.23308,3.09653.49573,6.24846-.53016,9.28767-1.64895,4.885-6.0919,8.5336-11.41364,8.06022a11.56244,11.56244,0,0,1-9.8695-9.54705c-.57395-3.45-.76929-6.985.46884-10.35827,1.58962-4.33095,4.51616-7.20165,9.27-7.863A1.39791,1.39791,0,0,0,23,0ZM15.23347,13.66493a39.32937,39.32937,0,0,0,.52009,4.73638,8.57812,8.57812,0,0,0,7.76781,6.82555c3.33685.11485,6.59485-2.3079,7.82211-6.07572a15.93907,15.93907,0,0,0-.0933-10.4108,8.33819,8.33819,0,0,0-7.673-5.78026,8.3435,8.3435,0,0,0-7.53474,5.9575A30.79271,30.79271,0,0,0,15.23347,13.66493Z"/>
      </g>
    </g>
  </g>
</svg>
