<?xml version="1.0" encoding="utf-8"?>
<!-- Generator: Adobe Illustrator 23.1.1, SVG Export Plug-In . SVG Version: 6.00 Build 0)  -->
<svg version="1.1" id="Laag_1" xmlns="http://www.w3.org/2000/svg" xmlns:xlink="http://www.w3.org/1999/xlink" x="0px" y="0px"
	 viewBox="0 0 26 26" style="enable-background:new 0 0 26 26;" xml:space="preserve">
<style type="text/css">
	.st0{fill:#003082;}
</style>
<g>
	<path class="st0" d="M15,1.5c0.9,0,1.5,0.6,1.5,1.5v8c0,0.8,0.7,1.5,1.5,1.5h1.7l-5.5,5.4c-0.4,0.4-0.9,0.9-1.1,1.1
		c-0.3-0.2-0.7-0.7-1.1-1.1l-5.4-5.4H8c0.8,0,1.5-0.7,1.5-1.5V3c0-0.9,0.6-1.5,1.5-1.5H15 M15,0h-4C9.3,0,8,1.3,8,3v8H4.7
		c-1.4,0-1.6,0.2-0.5,1.4l6.6,6.6c1.1,1.1,1.6,1.6,2.2,1.6s1.1-0.5,2.2-1.6l6.6-6.5c1.2-1.3,0.8-1.5-0.5-1.5H18V3
		C18,1.3,16.7,0,15,0L15,0z"/>
</g>
<g>
	<path class="st0" d="M2.5,25.8c-1.5,0-2.2-0.7-2.2-2.2v-3.8c0-0.3,0.2-0.5,0.5-0.5c0.3,0,0.5,0.2,0.5,0.5v3.8
		c0,0.7,0.6,1.2,1.2,1.2h21c0.7,0,1.2-0.6,1.2-1.2v-3.8c0-0.3,0.2-0.5,0.5-0.5c0.3,0,0.5,0.2,0.5,0.5v3.8c0,1.7-0.4,2.2-1.8,2.2H2.5
		z"/>
	<path class="st0" d="M25.3,19.5c0.1,0,0.2,0.1,0.2,0.2v3.8c0,1.6-0.3,2-1.5,2H2.5c-1.4,0-2-0.6-2-2v-3.8c0-0.1,0.1-0.2,0.3-0.2
		c0.1,0,0.2,0.1,0.2,0.2v3.8C1,24.3,1.7,25,2.5,25h21c0.8,0,1.5-0.7,1.5-1.5v-3.8C25,19.6,25.1,19.5,25.3,19.5L25.3,19.5 M25.3,19
		L25.3,19c-0.4,0-0.8,0.3-0.8,0.7v3.8c0,0.6-0.4,1-1,1h-21c-0.6,0-1-0.4-1-1v-3.8c0-0.4-0.3-0.7-0.7-0.7h0C0.3,19,0,19.3,0,19.7v3.8
		C0,25.2,0.8,26,2.5,26H24c1.7,0,2-0.8,2-2.5v-3.8C26,19.3,25.7,19,25.3,19L25.3,19z"/>
</g>
</svg>
